<?xml version="1.0" standalone="no"?>
<!DOCTYPE svg PUBLIC "-//W3C//DTD SVG 20010904//EN"
 "http://www.w3.org/TR/2001/REC-SVG-20010904/DTD/svg10.dtd">
<svg version="1.0" xmlns="http://www.w3.org/2000/svg"
 width="611.000000pt" height="611.000000pt" viewBox="0 0 611.000000 611.000000"
 preserveAspectRatio="xMidYMid meet">
<metadata>
Created by potrace 1.14, written by Peter Selinger 2001-2017
</metadata>
<g transform="translate(0.000000,611.000000) scale(0.100000,-0.100000)"
fill="#000000" stroke="none">
<path d="M3058 4710 c-114 -19 -249 -69 -353 -129 -104 -59 -276 -215 -340
-307 l-20 -29 -5 195 -5 195 -472 3 -473 2 0 -1375 0 -1375 475 0 475 0 0 749
0 749 30 92 c73 222 160 320 345 388 87 32 274 33 410 2 66 -15 172 -58 215
-87 19 -12 41 -23 48 -23 16 0 395 764 390 787 -7 35 -200 113 -377 153 -95
21 -250 25 -343 10z"/>
<path d="M4175 3755 c-113 -15 -308 -71 -404 -116 -300 -139 -602 -423 -740
-696 -157 -313 -193 -663 -102 -1003 105 -392 439 -761 860 -950 192 -86 375
-122 631 -122 133 0 203 5 290 21 120 21 347 83 438 120 55 22 155 82 166 99
5 8 -293 634 -309 651 -3 2 -33 -9 -67 -26 -181 -87 -401 -116 -558 -72 -134
37 -257 120 -346 235 -95 122 -133 228 -141 394 -5 98 -2 128 16 199 28 109
68 186 140 270 81 94 179 165 271 197 91 32 281 44 394 25 83 -15 197 -55 245
-87 19 -13 38 -21 43 -18 14 9 318 635 313 644 -7 12 -134 93 -170 109 -99 44
-272 94 -407 117 -129 22 -436 27 -563 9z"/>
</g>
</svg>
